<svg xmlns="http://www.w3.org/2000/svg" width="814" height="704" viewBox="0 0 814 704" fill="none"><path d="M182.484 522.93C183.765 522.93 184.819 523.344 185.648 524.173C186.477 524.926 186.891 525.943 186.891 527.224V555.248C186.891 556.529 186.477 557.583 185.648 558.412C178.642 564.891 169.414 568.13 157.963 568.13C149.978 568.13 142.633 566.096 135.928 562.028C129.223 557.96 123.875 552.461 119.882 545.53C115.965 538.599 114.006 531.028 114.006 522.817C114.006 514.681 115.965 507.148 119.882 500.217C123.799 493.286 129.11 487.787 135.815 483.719C142.52 479.651 149.902 477.617 157.963 477.617C163.387 477.617 168.321 478.408 172.766 479.99C177.211 481.572 181.505 484.096 185.648 487.561C186.477 488.164 186.891 489.03 186.891 490.16C186.891 490.763 186.74 491.328 186.439 491.855C186.138 492.307 185.723 492.646 185.196 492.872C185.045 493.399 184.706 493.851 184.179 494.228C183.652 494.529 183.087 494.68 182.484 494.68C181.429 494.68 180.488 494.303 179.659 493.55C176.721 490.913 173.519 488.992 170.054 487.787C166.589 486.582 162.558 485.979 157.963 485.979C151.635 485.979 145.759 487.674 140.335 491.064C134.911 494.379 130.579 498.861 127.34 504.511C124.176 510.161 122.594 516.263 122.594 522.817C122.594 529.522 124.176 535.699 127.34 541.349C130.504 546.999 134.798 551.481 140.222 554.796C145.646 558.111 151.56 559.768 157.963 559.768C165.27 559.768 172.05 557.621 178.303 553.327V530.727H160.675C159.394 530.727 158.34 530.35 157.511 529.597C156.682 528.844 156.268 527.902 156.268 526.772C156.268 525.642 156.682 524.738 157.511 524.06C158.34 523.307 159.394 522.93 160.675 522.93H182.484ZM227.739 504.511C230.903 504.511 233.389 504.925 235.197 505.754C237.08 506.583 238.022 507.75 238.022 509.257C238.022 509.709 237.984 510.048 237.909 510.274C237.607 511.329 237.118 512.044 236.44 512.421C235.837 512.798 234.971 512.986 233.841 512.986C233.163 512.986 231.995 512.911 230.338 512.76C229.735 512.685 228.831 512.647 227.626 512.647C221.976 512.647 217.343 514.154 213.727 517.167C210.186 520.18 208.416 524.098 208.416 528.919V562.706C208.416 564.062 208.039 565.117 207.286 565.87C206.532 566.623 205.478 567 204.122 567C202.766 567 201.711 566.623 200.958 565.87C200.204 565.117 199.828 564.062 199.828 562.706V509.483C199.828 508.127 200.204 507.072 200.958 506.319C201.711 505.566 202.766 505.189 204.122 505.189C205.478 505.189 206.532 505.566 207.286 506.319C208.039 507.072 208.416 508.127 208.416 509.483V514.455C210.6 511.291 213.388 508.843 216.778 507.11C220.168 505.377 223.821 504.511 227.739 504.511ZM269.351 567.565C263.4 567.565 258.013 566.209 253.192 563.497C248.446 560.785 244.717 557.056 242.005 552.31C239.293 547.489 237.937 542.102 237.937 536.151C237.937 530.2 239.293 524.813 242.005 519.992C244.717 515.171 248.446 511.404 253.192 508.692C258.013 505.98 263.4 504.624 269.351 504.624C275.302 504.624 280.651 505.98 285.397 508.692C290.143 511.404 293.872 515.171 296.584 519.992C299.371 524.813 300.765 530.2 300.765 536.151C300.765 542.102 299.409 547.489 296.697 552.31C293.985 557.056 290.218 560.785 285.397 563.497C280.651 566.209 275.302 567.565 269.351 567.565ZM269.351 559.655C273.72 559.655 277.638 558.638 281.103 556.604C284.568 554.57 287.28 551.783 289.239 548.242C291.198 544.626 292.177 540.596 292.177 536.151C292.177 531.631 291.198 527.601 289.239 524.06C287.28 520.444 284.568 517.619 281.103 515.585C277.638 513.551 273.72 512.534 269.351 512.534C265.057 512.534 261.14 513.551 257.599 515.585C254.134 517.619 251.384 520.444 249.35 524.06C247.391 527.601 246.412 531.631 246.412 536.151C246.412 540.596 247.391 544.626 249.35 548.242C251.384 551.783 254.134 554.57 257.599 556.604C261.14 558.638 265.057 559.655 269.351 559.655ZM378.096 505.189C379.301 505.189 380.243 505.528 380.921 506.206C381.599 506.884 381.938 507.788 381.938 508.918C381.938 509.822 381.787 510.613 381.486 511.291L363.858 564.175C363.556 565.004 363.029 565.682 362.276 566.209C361.598 566.736 360.769 567 359.79 567C358.81 567 357.906 566.736 357.078 566.209C356.325 565.682 355.835 565.004 355.609 564.175L342.049 519.201L328.489 564.175C328.187 565.079 327.66 565.795 326.907 566.322C326.153 566.774 325.325 567 324.421 567C323.441 567 322.575 566.736 321.822 566.209C321.144 565.682 320.616 565.004 320.24 564.175L302.612 511.291C302.386 510.387 302.273 509.596 302.273 508.918C302.273 506.432 303.478 505.189 305.889 505.189C307.998 505.189 309.429 506.281 310.183 508.466L324.647 552.536L337.981 508.579C338.282 507.524 338.772 506.696 339.45 506.093C340.203 505.49 341.145 505.189 342.275 505.189C343.405 505.189 344.309 505.49 344.987 506.093C345.74 506.696 346.267 507.524 346.569 508.579L359.564 552.31L373.915 508.466C374.668 506.281 376.062 505.189 378.096 505.189ZM416.768 558.299C417.974 558.299 418.953 558.713 419.706 559.542C420.46 560.371 420.836 561.425 420.836 562.706C420.836 563.911 420.384 564.928 419.48 565.757C418.576 566.586 417.446 567 416.09 567H413.717C409.725 567 406.146 566.058 402.982 564.175C399.818 562.216 397.332 559.617 395.524 556.378C393.792 553.063 392.925 549.334 392.925 545.191V515.02H385.58C384.375 515.02 383.396 514.681 382.642 514.003C381.964 513.25 381.625 512.346 381.625 511.291C381.625 510.161 381.964 509.257 382.642 508.579C383.396 507.826 384.375 507.449 385.58 507.449H392.925V489.934C392.925 488.653 393.302 487.599 394.055 486.77C394.884 485.941 395.939 485.527 397.219 485.527C398.5 485.527 399.555 485.941 400.383 486.77C401.212 487.599 401.626 488.653 401.626 489.934V507.449H414.395C415.601 507.449 416.542 507.826 417.22 508.579C417.974 509.257 418.35 510.161 418.35 511.291C418.35 512.346 417.974 513.25 417.22 514.003C416.542 514.681 415.601 515.02 414.395 515.02H401.626V545.191C401.626 549.033 402.756 552.197 405.016 554.683C407.276 557.094 410.177 558.299 413.717 558.299H416.768ZM459.747 504.511C465.096 504.511 469.879 505.641 474.098 507.901C478.392 510.161 481.744 513.476 484.155 517.845C486.566 522.139 487.771 527.299 487.771 533.326V562.706C487.771 563.911 487.357 564.928 486.528 565.757C485.699 566.586 484.682 567 483.477 567C482.196 567 481.142 566.586 480.313 565.757C479.484 564.928 479.07 563.911 479.07 562.706V533.326C479.07 526.621 477.187 521.536 473.42 518.071C469.729 514.53 464.87 512.76 458.843 512.76C455.152 512.76 451.799 513.476 448.786 514.907C445.848 516.338 443.513 518.335 441.78 520.896C440.047 523.382 439.181 526.169 439.181 529.258V562.706C439.181 563.987 438.767 565.041 437.938 565.87C437.185 566.623 436.168 567 434.887 567C433.606 567 432.552 566.623 431.723 565.87C430.894 565.041 430.48 563.987 430.48 562.706V483.154C430.48 481.873 430.894 480.819 431.723 479.99C432.552 479.161 433.606 478.747 434.887 478.747C436.168 478.747 437.185 479.161 437.938 479.99C438.767 480.819 439.181 481.873 439.181 483.154V513.438C441.667 510.651 444.68 508.466 448.221 506.884C451.762 505.302 455.604 504.511 459.747 504.511ZM507.971 567C506.69 567 505.635 566.586 504.807 565.757C503.978 564.928 503.564 563.874 503.564 562.593V483.154C503.564 481.873 503.978 480.819 504.807 479.99C505.635 479.161 506.69 478.747 507.971 478.747H530.571C536.07 478.747 540.967 479.99 545.261 482.476C549.63 484.887 553.02 488.277 555.431 492.646C557.841 496.94 559.047 501.874 559.047 507.449C559.047 512.948 557.841 517.845 555.431 522.139C553.02 526.433 549.63 529.785 545.261 532.196C540.967 534.607 536.07 535.812 530.571 535.812H512.378V562.593C512.378 563.874 511.963 564.928 511.135 565.757C510.306 566.586 509.251 567 507.971 567ZM530.571 527.337C534.413 527.337 537.84 526.508 540.854 524.851C543.867 523.118 546.202 520.745 547.86 517.732C549.592 514.719 550.459 511.291 550.459 507.449C550.459 503.532 549.592 500.066 547.86 497.053C546.202 493.964 543.867 491.554 540.854 489.821C537.84 488.088 534.413 487.222 530.571 487.222H512.378V527.337H530.571ZM592.262 504.624C598.138 504.624 603.449 506.018 608.195 508.805C613.016 511.517 616.783 515.284 619.495 520.105C622.282 524.926 623.676 530.275 623.676 536.151V562.706C623.676 563.911 623.261 564.928 622.433 565.757C621.604 566.586 620.549 567 619.269 567C617.988 567 616.933 566.623 616.105 565.87C615.276 565.041 614.862 563.987 614.862 562.706V555.926C612.225 559.542 608.873 562.405 604.805 564.514C600.737 566.548 596.254 567.565 591.358 567.565C585.632 567.565 580.434 566.209 575.764 563.497C571.168 560.71 567.515 556.943 564.803 552.197C562.166 547.376 560.848 542.027 560.848 536.151C560.848 530.275 562.204 524.926 564.916 520.105C567.703 515.284 571.47 511.517 576.216 508.805C581.037 506.018 586.386 504.624 592.262 504.624ZM592.262 559.655C596.556 559.655 600.435 558.638 603.901 556.604C607.366 554.57 610.078 551.783 612.037 548.242C614.071 544.626 615.088 540.596 615.088 536.151C615.088 531.706 614.071 527.714 612.037 524.173C610.078 520.557 607.366 517.732 603.901 515.698C600.435 513.589 596.556 512.534 592.262 512.534C587.968 512.534 584.05 513.589 580.51 515.698C577.044 517.732 574.295 520.557 572.261 524.173C570.302 527.714 569.323 531.706 569.323 536.151C569.323 540.596 570.302 544.626 572.261 548.242C574.295 551.783 577.044 554.57 580.51 556.604C584.05 558.638 587.968 559.655 592.262 559.655ZM695.516 508.466C695.592 508.692 695.629 509.031 695.629 509.483V536.038C695.629 541.914 694.236 547.263 691.448 552.084C688.736 556.905 684.97 560.71 680.148 563.497C675.402 566.209 670.091 567.565 664.215 567.565C658.339 567.565 652.991 566.209 648.169 563.497C643.423 560.71 639.657 556.905 636.869 552.084C634.157 547.263 632.801 541.914 632.801 536.038C632.801 530.162 634.12 524.851 636.756 520.105C639.468 515.284 643.122 511.517 647.717 508.805C652.388 506.018 657.586 504.624 663.311 504.624C668.208 504.624 672.69 505.679 676.758 507.788C680.826 509.822 684.179 512.647 686.815 516.263V483.154C686.815 481.873 687.23 480.819 688.058 479.99C688.887 479.161 689.942 478.747 691.222 478.747C692.503 478.747 693.52 479.161 694.273 479.99C695.102 480.819 695.516 481.873 695.516 483.154V508.466ZM664.215 559.655C668.509 559.655 672.389 558.638 675.854 556.604C679.32 554.495 682.032 551.67 683.99 548.129C686.024 544.513 687.041 540.483 687.041 536.038C687.041 534.757 687.004 533.816 686.928 533.213C686.853 533.062 686.815 532.874 686.815 532.648C686.062 526.772 683.576 521.951 679.357 518.184C675.214 514.417 670.167 512.534 664.215 512.534C659.921 512.534 656.004 513.551 652.463 515.585C648.998 517.619 646.248 520.444 644.214 524.06C642.256 527.601 641.276 531.593 641.276 536.038C641.276 540.483 642.256 544.513 644.214 548.129C646.248 551.67 648.998 554.495 652.463 556.604C656.004 558.638 659.921 559.655 664.215 559.655Z" fill="#32A264"></path><path d="M407.819 77L250 393.5L407.819 289.5L567.5 393.5L407.819 77Z" stroke="#D72B27" stroke-width="7"></path><path d="M406.819 168L249 484.5L406.819 380.5L566.5 484.5L406.819 168Z" fill="#D72B27" stroke="#D72B27" stroke-width="7"></path></svg>